<?xml version="1.0" standalone="no"?>
<!DOCTYPE svg PUBLIC "-//W3C//DTD SVG 20010904//EN"
 "http://www.w3.org/TR/2001/REC-SVG-20010904/DTD/svg10.dtd">
<svg version="1.0" xmlns="http://www.w3.org/2000/svg"
 width="833.000000pt" height="1280.000000pt" viewBox="0 0 833.000000 1280.000000"
 preserveAspectRatio="xMidYMid meet">
<metadata>
Created by potrace 1.15, written by Peter Selinger 2001-2017
</metadata>
<g transform="translate(0.000000,1280.000000) scale(0.100000,-0.100000)"
fill="#000000" stroke="none">
<path d="M4005 12758 c-43 -51 -99 -162 -118 -236 -9 -38 -20 -57 -37 -65 -13
-7 -28 -20 -33 -29 -15 -23 6 -66 37 -78 14 -5 30 -18 35 -29 8 -13 11 -277
11 -825 l0 -806 -87 0 c-51 0 -99 -6 -113 -13 -32 -16 -52 -76 -48 -145 2 -35
-1 -51 -8 -48 -6 2 -82 47 -168 100 -87 53 -161 96 -165 96 -12 0 -56 -51 -82
-95 -13 -22 -91 -119 -174 -215 -231 -269 -373 -448 -409 -518 -15 -29 -15
-33 -1 -38 9 -4 67 10 129 30 63 20 126 36 140 36 15 0 73 12 129 26 84 22
115 25 177 20 123 -10 117 -17 122 142 2 76 7 143 12 150 6 10 46 -24 150
-127 120 -119 147 -141 173 -141 17 0 51 -3 77 -6 l46 -7 0 -547 c0 -544 0
-547 -21 -566 -12 -10 -70 -71 -130 -136 l-109 -116 129 -149 130 -148 1
-2692 0 -2693 -140 0 c-78 0 -308 -13 -513 -30 -491 -39 -1462 -116 -1707
-135 -217 -16 -304 -36 -415 -92 -130 -66 -229 -160 -285 -273 -46 -91 -50
-125 -50 -482 0 -294 -2 -338 -15 -338 -8 0 -15 -4 -15 -9 0 -5 7 -14 15 -21
11 -9 15 -34 15 -96 0 -97 -6 -102 -81 -59 -45 25 -93 33 -104 16 -3 -5 3 -16
13 -23 25 -18 62 -68 62 -83 0 -7 -8 -11 -17 -9 -10 2 -25 0 -33 -6 -13 -9
-11 -13 10 -30 14 -11 21 -20 15 -20 -5 0 -21 9 -34 19 -20 16 -23 24 -18 56
5 31 4 35 -8 25 -8 -7 -17 -21 -20 -31 -6 -18 -13 -19 -63 -13 -75 8 -134 -9
-180 -51 -20 -18 -35 -36 -32 -39 3 -3 25 0 49 5 49 11 129 -2 171 -27 19 -11
20 -14 5 -10 -11 3 -32 8 -46 11 -14 3 -45 -1 -70 -9 -24 -9 -60 -16 -79 -16
-36 0 -100 -32 -100 -50 0 -5 14 -10 30 -10 17 0 47 -7 68 -16 l37 -15 -23
-19 c-31 -26 -28 -40 11 -41 24 -1 19 -3 -21 -10 -71 -12 -111 -30 -157 -70
-40 -35 -74 -98 -75 -136 0 -28 16 -30 29 -5 16 31 86 73 148 89 82 22 240 20
333 -3 l75 -19 -110 -5 c-118 -7 -150 -17 -197 -67 -54 -56 -58 -81 -58 -342
l0 -239 28 -53 c22 -43 38 -59 81 -81 l53 -28 3677 0 c3534 0 3678 1 3716 19
51 23 101 79 114 128 14 50 14 466 0 516 -13 49 -64 106 -114 128 l-40 18 76
34 c124 57 266 99 351 105 l78 5 41 -42 c23 -23 44 -39 47 -37 12 12 -12 80
-39 111 -33 38 -105 65 -169 65 -95 0 -231 -56 -391 -161 -100 -66 -100 -64 1
51 37 41 101 121 144 178 42 56 86 108 97 115 51 32 -11 37 -74 6 -23 -12 -50
-28 -60 -37 -9 -8 -20 -12 -24 -9 -9 9 20 31 86 64 67 33 148 41 211 19 24 -8
46 -13 49 -10 3 2 -11 20 -29 39 -48 49 -104 68 -187 63 -58 -4 -88 -13 -157
-46 -5 -3 -6 8 -3 23 4 21 -1 33 -17 46 -27 24 -36 23 -36 0 0 -10 -9 -21 -20
-24 -18 -4 -20 -2 -14 16 13 45 55 107 84 124 43 25 37 36 -14 31 -29 -4 -60
-17 -87 -37 -24 -17 -52 -31 -63 -31 -31 0 -88 -45 -121 -95 -16 -24 -33 -45
-36 -45 -16 0 -19 70 -19 455 0 454 -4 488 -63 599 -47 89 -154 192 -252 243
-120 62 -202 81 -420 98 -248 19 -1400 108 -1809 140 -176 14 -375 25 -443 25
l-123 0 0 2693 0 2692 130 150 129 150 -129 130 -130 130 0 552 0 551 68 7
c37 4 81 15 97 25 17 10 81 73 144 140 84 89 117 118 125 110 7 -7 12 -66 14
-150 4 -161 -3 -153 127 -144 66 5 97 1 178 -20 53 -14 109 -26 124 -26 14 0
75 -16 134 -35 118 -38 134 -41 145 -24 13 22 -147 232 -411 540 -85 99 -173
208 -195 243 -22 35 -48 67 -57 70 -10 4 -73 -28 -172 -88 -86 -52 -165 -98
-174 -102 -15 -5 -17 2 -17 69 0 42 -3 83 -6 92 -12 30 -60 45 -149 45 l-85 0
0 813 c1 836 1 847 38 847 13 0 42 40 42 58 0 8 -12 26 -28 40 -16 16 -35 52
-46 87 -37 121 -129 265 -169 265 -8 0 -32 -19 -52 -42z m-3361 -11770 c25
-29 46 -62 46 -73 -1 -16 -8 -11 -40 25 -46 54 -75 100 -61 100 5 0 30 -24 55
-52z"/>
</g>
</svg>
